# xmcd CD database file
#
# Track frame offsets:
#	150
#	14342
#	23886
#	37166
#	50139
#	64074
#	79293
#	90331
#	99391
#	110398
#	127089
#	138680
#	151204
#	163344
#	176111
#	188205
#	201231
#	211839
#	224121
#	234987
#
# Disc length: 3290 seconds
#
# Revision: 0
# Processed by: cddbd v1.5PL3 Copyright (c) Steve Scherf et al.
# Submitted via: CDex 1.51
#
DISCID=2a0cd814
DTITLE=Compiliation - Just a Little Taste of Mexican Music (vol 3)
DYEAR=2000
DGENRE=Salsa
TTITLE0=El Caballo Blanco - Lola Beltran
TTITLE1=El Mariachi Loco - Mariachi del Roman Palomar
TTITLE2=La Feria de las Flores - Elias Torres
TTITLE3=El Colas - Sones Jarochos la Bomba
TTITLE4=Tuxtla - Marimba Hnos. Paniagua
TTITLE5=De Reynosa a Matamoros - Los Broncos de Reynosa
TTITLE6=La Cama de piedra - Lola Beltran
TTITLE7=Las Copetonas - Mariachi Guadalajara
TTITLE8=Las Pelitas - Elias Torres
TTITLE9=La Malagena - David Zaizar
TTITLE10=El Zopilote Mojado - Mariachi Mexico de Pepe Villa
TTITLE11=Tehuantepecana - Marimba Hnos. Paniagua
TTITLE12=La Guarcamaya - Sones Jaroichos la Bomba
TTITLE13=El Bolochon - Mariachi Guadalajara
TTITLE14=La Negra - Elias Torres
TTITLE15=El Rascapetate - Marimba Hnos. Paniagua
TTITLE16=Plaza Mexico - Mariachi Mexico de Pepe Villa
TTITLE17=El Indio de Comitan - Marimba Hnos. Paniagua
TTITLE18=Maracumbe - Sones Jarochos la Bomba
TTITLE19=La Tortuga del Arenal - Marimba Hnos. Paniagua
EXTD=YEAR: 2000
EXTT0=
EXTT1=
EXTT2=
EXTT3=
EXTT4=
EXTT5=
EXTT6=
EXTT7=
EXTT8=
EXTT9=
EXTT10=
EXTT11=
EXTT12=
EXTT13=
EXTT14=
EXTT15=
EXTT16=
EXTT17=
EXTT18=
EXTT19=
PLAYORDER=
